<svg aria-hidden="true" style="position: absolute; width: 0; height: 0; overflow: hidden;" version="1.1" xmlns="http://www.w3.org/2000/svg" xmlns:xlink="http://www.w3.org/1999/xlink">
<defs>
<symbol id="menu" viewBox="0 0 74 32">
<path fill="#bf2738" stroke-linejoin="round" stroke-linecap="round" stroke-miterlimit="4" stroke-width="6.4" d="M3.2 3.2h67.2"></path>
<path fill="#bf2738" stroke-linejoin="round" stroke-linecap="round" stroke-miterlimit="4" stroke-width="6.4" d="M3.2 28.8h32.7"></path>
</symbol>
<symbol id="logo" viewBox="0 0 54 32">
<path fill="#bf2738" style="fill: var(--color1, #bf2738)" d="M3.924 28.61l-2.012-3.689h-1.911v6.98h1.811v-3.889l1.408 2.493h1.408l1.408-2.493v3.889h1.811v-6.98h-1.912l-2.012 3.689zM13.883 24.821h-2.515c-0.704 0-1.216 0.158-1.534 0.474s-0.478 0.823-0.478 1.521v3.191c0 0.698 0.159 1.205 0.478 1.521s0.83 0.474 1.534 0.474h2.515c0.704 0 1.216-0.158 1.534-0.474s0.478-0.823 0.478-1.521v-3.191c0-0.698-0.159-1.205-0.478-1.521s-0.83-0.474-1.534-0.474zM14.085 30.006c0 0.399-0.201 0.598-0.604 0.598h-1.71c-0.402 0-0.604-0.199-0.604-0.598v-3.191c0-0.399 0.201-0.598 0.604-0.598h1.71c0.402 0 0.604 0.199 0.604 0.598v3.191zM21.731 27.662h-2.515v-2.742h-1.811v6.98h1.811v-2.842h2.515v2.842h1.811v-6.98h-1.811v2.742zM25.252 31.9h5.584v-1.396h-3.773v-1.446h2.968v-1.396h-2.968v-1.346h3.773v-1.396h-5.584v6.98zM38.003 28.749c-0.11-0.146-0.24-0.262-0.387-0.349s-0.296-0.15-0.443-0.19c0.255-0.1 0.47-0.274 0.644-0.524s0.261-0.573 0.261-0.972c0-0.605-0.154-1.055-0.462-1.351s-0.792-0.444-1.449-0.444h-4.024v6.98h4.326c0.657 0 1.14-0.153 1.449-0.458s0.462-0.785 0.462-1.436c0-0.273-0.035-0.514-0.106-0.723s-0.161-0.387-0.272-0.533zM33.954 26.316h1.71c0.402 0 0.604 0.199 0.604 0.598v0.199c0 0.399-0.201 0.598-0.604 0.598h-1.71v-1.396zM36.57 29.906c0 0.399-0.201 0.598-0.604 0.598h-2.012v-1.396h2.012c0.402 0 0.604 0.199 0.604 0.598v0.199zM41.751 24.92l-2.666 6.98h1.962l0.453-1.246h2.515l0.453 1.246h1.962l-2.666-6.98h-2.012zM41.952 29.358l0.805-2.343 0.805 2.343h-1.61zM51.66 28.36l0.956-1.795c0.040-0.073 0.101-0.141 0.181-0.204s0.171-0.095 0.272-0.095h0.402v-1.346c-0.087-0.013-0.181-0.030-0.282-0.050-0.087-0.013-0.184-0.025-0.292-0.035s-0.218-0.015-0.332-0.015c-0.356 0-0.642 0.088-0.86 0.264s-0.401 0.404-0.548 0.683l-1.006 1.894h-0.905v-2.742h-1.811v6.98h1.811v-2.842h0.905l1.559 2.842h1.911l-1.962-3.54z"></path>
<path fill="#bf2738" style="fill: var(--color1, #bf2738)" d="M40.371 15.5v-12.095c0 0 0.087-1.57-0.628-2.28s-2.287-0.609-2.287-0.609h-20.98c0 0-1.781-0.042-2.555 0.761-0.751 0.78-0.736 2.397-0.736 2.397v11.624c0 0-0.083 1.652 0.736 2.431 0.842 0.8 2.586 0.727 2.586 0.727h20.813c0 0 1.636 0.114 2.409-0.636 0.752-0.728 0.643-2.32 0.643-2.32z"></path>
<path fill="#1a1a1a" style="fill: var(--color2, #1a1a1a)" d="M38.755 1.967c-0.361-0.339-1.001-0.458-1.001-0.458h-4.621c0 0-7.292 12.283-8.009 13.128-2.272 2.676-5.314 2.748-5.314 2.748h18.098c0 0 0.599-0.118 0.924-0.458 0.33-0.346 0.385-0.916 0.385-0.916v-13.128c0 0-0.092-0.569-0.462-0.916z"></path>
<path fill="#fff" style="fill: var(--color3, #fff)" d="M30.837 0.006c-1.476-0.091-3.169 0.814-3.169 0.814l-8.922 8.144c0 0 5.515-1.505 6.221 2.444 0.976 5.452-5.752 6.014-5.752 6.014s2.985 0.297 5.517-2.058c2.31-2.149 8.57-13.845 8.57-13.845s-1.131-1.43-2.466-1.513z"></path>
</symbol>
<symbol id="comparison" viewBox="0 0 24 32">
<path fill="none" stroke="#c9c9cf" style="stroke: var(--color4, #c9c9cf)" stroke-linejoin="round" stroke-linecap="round" stroke-miterlimit="4" stroke-width="4" d="M2 16v14"></path>
<path fill="none" stroke="#c9c9cf" style="stroke: var(--color4, #c9c9cf)" stroke-linejoin="round" stroke-linecap="round" stroke-miterlimit="4" stroke-width="4" d="M12 2v28"></path>
<path fill="none" stroke="#c9c9cf" style="stroke: var(--color4, #c9c9cf)" stroke-linejoin="round" stroke-linecap="round" stroke-miterlimit="4" stroke-width="4" d="M22 12v18"></path>
</symbol>
<symbol id="search" viewBox="0 0 30 32">
<path fill="none" stroke="#c9c9cf" style="stroke: var(--color4, #c9c9cf)" stroke-linejoin="round" stroke-linecap="round" stroke-miterlimit="4" stroke-width="3.3684" d="M1.684 29.618l4.355-4.355"></path>
<path fill="none" stroke="#c9c9cf" style="stroke: var(--color4, #c9c9cf)" stroke-linejoin="miter" stroke-linecap="butt" stroke-miterlimit="4" stroke-width="3.3684" d="M28.632 14.316c0 6.976-5.655 12.632-12.632 12.632s-12.632-5.655-12.632-12.632c0-6.976 5.655-12.632 12.632-12.632s12.632 5.655 12.632 12.632z"></path>
</symbol>
</defs>
</svg>
