<svg aria-hidden="true" style="position:absolute;width:0;height:0;overflow:hidden" xmlns="http://www.w3.org/2000/svg"><defs><symbol id="menu" viewBox="0 0 74 32"><path fill="#bf2738" stroke-linejoin="round" stroke-linecap="round" stroke-width="6.4" d="M3.2 3.2h67.2M3.2 28.8h32.7"/></symbol><symbol id="logo" viewBox="0 0 54 32"><path fill="#bf2738" style="fill:var(--color1, #bf2738)" d="m3.924 28.61-2.012-3.689H.001v6.98h1.811v-3.889l1.408 2.493h1.408l1.408-2.493v3.889h1.811v-6.98H5.935L3.923 28.61zm9.959-3.789h-2.515c-.704 0-1.216.158-1.534.474s-.478.823-.478 1.521v3.191c0 .698.159 1.205.478 1.521s.83.474 1.534.474h2.515c.704 0 1.216-.158 1.534-.474s.478-.823.478-1.521v-3.191c0-.698-.159-1.205-.478-1.521s-.83-.474-1.534-.474zm.202 5.185c0 .399-.201.598-.604.598h-1.71c-.402 0-.604-.199-.604-.598v-3.191c0-.399.201-.598.604-.598h1.71c.402 0 .604.199.604.598v3.191zm7.646-2.344h-2.515V24.92h-1.811v6.98h1.811v-2.842h2.515V31.9h1.811v-6.98h-1.811v2.742zm3.521 4.238h5.584v-1.396h-3.773v-1.446h2.968v-1.396h-2.968v-1.346h3.773V24.92h-5.584v6.98zm12.751-3.151c-.11-.146-.24-.262-.387-.349s-.296-.15-.443-.19c.255-.1.47-.274.644-.524s.261-.573.261-.972c0-.605-.154-1.055-.462-1.351s-.792-.444-1.449-.444h-4.024v6.98h4.326c.657 0 1.14-.153 1.449-.458s.462-.785.462-1.436c0-.273-.035-.514-.106-.723s-.161-.387-.272-.533zm-4.049-2.433h1.71c.402 0 .604.199.604.598v.199c0 .399-.201.598-.604.598h-1.71v-1.396zm2.616 3.59c0 .399-.201.598-.604.598h-2.012v-1.396h2.012c.402 0 .604.199.604.598v.199zm5.181-4.986-2.666 6.98h1.962l.453-1.246h2.515l.453 1.246h1.962l-2.666-6.98h-2.012zm.201 4.438.805-2.343.805 2.343h-1.61zm9.708-.998.956-1.795c.04-.073.101-.141.181-.204s.171-.095.272-.095h.402V24.92a6.138 6.138 0 0 1-.282-.05c-.087-.013-.184-.025-.292-.035s-.218-.015-.332-.015c-.356 0-.642.088-.86.264s-.401.404-.548.683l-1.006 1.894h-.905v-2.742h-1.811v6.98h1.811v-2.842h.905l1.559 2.842h1.911l-1.962-3.54zM40.371 15.5V3.405s.087-1.57-.628-2.28-2.287-.609-2.287-.609h-20.98s-1.781-.042-2.555.761c-.751.78-.736 2.397-.736 2.397v11.624s-.083 1.652.736 2.431c.842.8 2.586.727 2.586.727H37.32s1.636.114 2.409-.636c.752-.728.643-2.32.643-2.32z"/><path fill="#1a1a1a" style="fill:var(--color2, #1a1a1a)" d="M38.755 1.967c-.361-.339-1.001-.458-1.001-.458h-4.621s-7.292 12.283-8.009 13.128c-2.272 2.676-5.314 2.748-5.314 2.748h18.098s.599-.118.924-.458c.33-.346.385-.916.385-.916V2.883s-.092-.569-.462-.916z"/><path fill="#fff" style="fill:var(--color3, #fff)" d="M30.837.006c-1.476-.091-3.169.814-3.169.814l-8.922 8.144s5.515-1.505 6.221 2.444c.976 5.452-5.752 6.014-5.752 6.014s2.985.297 5.517-2.058c2.31-2.149 8.57-13.845 8.57-13.845S32.171.089 30.836.006z"/></symbol><symbol id="comparison" viewBox="0 0 24 32"><path fill="none" stroke="#c9c9cf" style="stroke:var(--color4, #c9c9cf)" stroke-linejoin="round" stroke-linecap="round" stroke-width="4" d="M2 16v14M12 2v28M22 12v18"/></symbol><symbol id="search" viewBox="0 0 30 32"><path fill="none" stroke="#c9c9cf" style="stroke:var(--color4, #c9c9cf)" stroke-linejoin="round" stroke-linecap="round" stroke-width="3.368" d="m1.684 29.618 4.355-4.355"/><path fill="none" stroke="#c9c9cf" style="stroke:var(--color4, #c9c9cf)" stroke-width="3.368" d="M28.632 14.316c0 6.976-5.655 12.632-12.632 12.632S3.368 21.293 3.368 14.316C3.368 7.34 9.023 1.684 16 1.684s12.632 5.655 12.632 12.632z"/></symbol></defs></svg>